<?xml version="1.0" encoding="UTF-8" standalone="no"?>
<!-- Created with Inkscape (http://www.inkscape.org/) -->

<svg
   version="1.1"
   id="svg1"
   width="1442.8138"
   height="497.6312"
   viewBox="0 0 1442.8138 497.6312"
   sodipodi:docname="acpx_banner.svg"
   inkscape:version="1.4.2 (ebf0e940, 2025-05-08)"
   xmlns:inkscape="http://www.inkscape.org/namespaces/inkscape"
   xmlns:sodipodi="http://sodipodi.sourceforge.net/DTD/sodipodi-0.dtd"
   xmlns="http://www.w3.org/2000/svg"
   xmlns:svg="http://www.w3.org/2000/svg">
  <defs
     id="defs1" />
  <sodipodi:namedview
     id="namedview1"
     pagecolor="#ffffff"
     bordercolor="#000000"
     borderopacity="0.25"
     inkscape:showpageshadow="2"
     inkscape:pageopacity="0.0"
     inkscape:pagecheckerboard="0"
     inkscape:deskcolor="#d1d1d1"
     inkscape:zoom="0.46148402"
     inkscape:cx="839.68237"
     inkscape:cy="208.02454"
     inkscape:window-width="1472"
     inkscape:window-height="893"
     inkscape:window-x="0"
     inkscape:window-y="34"
     inkscape:window-maximized="0"
     inkscape:current-layer="g1" />
  <g
     inkscape:groupmode="layer"
     inkscape:label="Image"
     id="g1"
     transform="translate(-46.593098,-230.85054)">
    <g
       id="g2">
      <path
         id="rect1"
         style="fill:#ffffff;stroke-width:30;stroke-linecap:round;stroke-linejoin:round;paint-order:stroke fill markers"
         d="M 124.24826,230.85054 H 1411.7518 c 43.0209,0 77.6551,34.6342 77.6551,77.65516 v 342.32088 c 0,43.02095 -34.6342,77.65516 -77.6551,77.65516 H 124.24826 c -43.020961,0 -77.655162,-34.63421 -77.655162,-77.65516 V 308.5057 c 0,-43.02096 34.634201,-77.65516 77.655162,-77.65516 z" />
      <path
         style="fill:#000000"
         d="m 251,642.41688 c -50.89429,-1.05836 -92.13787,-3.81475 -97.14054,-6.49209 -5.15343,-2.75804 2.09698,-4.59858 25.2306,-6.40487 9.97684,-0.779 18.31892,-1.59557 18.53795,-1.8146 0.21904,-0.21903 -0.23232,-1.92983 -1.003,-3.80178 -5.17022,-12.55816 -0.65578,-29.18622 13.80293,-50.8404 9.44678,-14.14804 19.81746,-24.11337 30.98158,-29.77066 l 5.02791,-2.54783 -9.26123,-2.74429 c -11.67873,-3.46065 -20.29019,-7.8161 -27.79486,-14.05791 -3.23474,-2.69042 -6.55634,-4.90749 -7.38134,-4.92683 -3.47415,-0.0814 -11.80724,-5.0472 -15.83959,-9.43895 -6.53961,-7.12248 -9.4712,-14.35561 -9.96094,-24.57667 -0.65174,-13.60226 4.03449,-24.11709 13.31847,-29.88361 2.99999,-1.86337 5.10978,-4.34324 7.33052,-8.61639 10.96229,-21.09367 33.11016,-37.04928 62.65154,-45.13498 9.40653,-2.57464 11.24628,-2.7381 31,-2.75434 19.65464,-0.0161 21.67096,0.1571 31.47321,2.7044 11.4193,2.96752 30.05799,11.43478 36.52679,16.59354 2.2,1.75447 6.76296,5.89519 10.13991,9.2016 l 6.13992,6.01167 3.84528,-2.06095 c 4.28088,-2.29441 7.20741,-2.54415 12.38149,-1.05656 1.92137,0.55241 12.2684,2.1381 22.9934,3.52375 33.55209,4.3349 36.17657,4.96285 40.71014,9.74071 4.37864,4.61458 6.11634,8.58338 7.40653,16.91607 0.62295,4.0233 1.26346,7.81516 1.42336,8.42635 0.1599,0.61119 3.1413,1.42383 6.62535,1.80585 12.6845,1.39086 26.49555,6.20647 44.33462,15.45851 15.53634,8.05775 28.38233,16.87692 54.54344,37.44574 41.85992,32.91181 62.55686,44.59718 92.83039,52.41152 12.3644,3.19155 15.25609,3.56313 31.22818,4.01274 13.92799,0.39207 19.3549,0.14864 26,-1.16625 11.22481,-2.22109 25.0723,-6.28613 31.31376,-9.19241 6.22921,-2.90057 8.72518,-2.99216 10.35648,-0.38004 1.11591,1.78686 0.89558,2.22643 -2.00946,4.00886 -9.07638,5.56898 -28.24971,11.16773 -44.66558,13.04268 -34.7979,3.97446 -69.10585,-4.26193 -103.95025,-24.95557 -14.14399,-8.39993 -21.38677,-13.47264 -40.18605,-28.14553 -32.75512,-25.56546 -38.82138,-29.90376 -53.74388,-38.43502 -15.36578,-8.78469 -34.9919,-15.82886 -47.74077,-17.13502 l -6.18131,-0.63329 -0.65656,3.87298 c -0.92147,5.43571 -4.77142,14.36977 -8.03776,18.65218 -3.53399,4.63329 -9.89887,7.72081 -15.91635,7.72081 -4.43541,0 -4.68604,0.1461 -4.71745,2.75 -0.0462,3.83085 -5.95528,18.97847 -10.05391,25.77275 -12.35882,20.48714 -33.75711,32.85916 -59.16292,34.20669 -5.9125,0.3136 -10.75,0.92335 -10.75,1.355 0,0.43164 0.71718,4.07673 1.59374,8.10018 0.87655,4.02346 1.63971,11.59038 1.69589,16.81538 0.13669,12.71103 -1.95504,19.65889 -7.79967,25.90728 l -4.39284,4.6963 25.70144,1.22027 c 36.8613,1.75014 56.31903,4.04539 56.59611,6.67615 0.27199,2.58235 -18.99908,4.97433 -52.39467,6.50338 -22.83511,1.04554 -98.74522,1.91788 -123,1.4135 z m -31.41689,-15.02334 c 4.39842,-2.08719 6.36586,-5.41886 11.9188,-20.18338 5.24788,-13.95341 5.24292,-13.99399 -2.4527,-20.07703 -4.59121,-3.62914 -13.10749,-6.83318 -15.02029,-5.65101 -1.37844,0.85193 -5.65852,8.93928 -8.61535,16.27902 -3.60344,8.94483 -3.99781,20.6066 -0.84249,24.91254 2.07506,2.83173 7.74652,6.32185 10.27779,6.32477 0.74188,8.5e-4 2.87229,-0.72136 4.73424,-1.60491 z M 240.99368,626.25 c -0.003,-0.4125 -1.40856,-1.54818 -3.1224,-2.52374 -2.98358,-1.69831 -3.1733,-1.69831 -4.46188,0 -2.134,2.81259 -1.69865,3.27374 3.0906,3.27374 2.475,0 4.49715,-0.3375 4.49368,-0.75 z M 320,625.53816 c 16.64059,-2.53998 22.42315,-5.63824 26.0271,-13.94517 5.54077,-12.77118 1.92473,-37.58873 -8.28942,-56.89189 -3.86922,-7.31221 -3.28313,-8.02294 8.26232,-10.01957 14.12473,-2.44269 19.57899,-4.98066 27,-12.56359 3.575,-3.653 8.61046,-10.23645 11.1899,-14.62988 l 4.6899,-7.98806 -4.1899,-0.51587 c -4.06581,-0.50058 -4.41508,-0.30452 -11.79292,6.62006 -4.18167,3.92475 -10.92409,9.07552 -14.98317,11.44615 -8.05617,4.70506 -23.26322,9.99934 -34.66381,12.06809 -3.9875,0.72357 -7.25,1.55808 -7.25,1.85447 0,0.29638 1.24879,1.09165 2.7751,1.76726 3.52091,1.5585 6.57483,6.58195 5.69213,9.36308 -1.43912,4.53428 -14.11647,6.8381 -26.98782,4.90443 -10.11761,-1.51998 -24.19886,-6.05532 -32.11409,-10.34342 l -6.13469,-3.32349 -4.74701,1.86465 c -2.61086,1.02555 -6.78628,3.05973 -9.27873,4.5204 l -4.53172,2.65577 4.08948,1.7368 c 4.49474,1.90892 6.21142,4.33865 7.32001,10.36049 1.18808,6.4536 -0.8222,15.04249 -7.01684,29.97934 -3.20289,7.72298 -6.1358,15.49094 -6.51757,17.26213 -0.62021,2.87738 -0.35571,3.42615 2.4836,5.15284 5.64555,3.43326 24.62901,7.51579 43.96815,9.45567 9.07897,0.91069 26.41995,0.51894 35,-0.79069 z m 79.10236,-75.1133 c 5.98502,-4.39341 14.12407,-13.24873 17.54974,-19.09419 l 2.62382,-4.47721 -2.91961,-4.17673 C 412.55765,517.24247 404.77471,512 400.50567,512 c -3.63271,0 -5.30065,1.78394 -11.84126,12.66483 -2.03816,3.39066 -5.65237,8.34066 -8.03157,11 -2.40889,2.69254 -4.11843,5.49987 -3.85782,6.33517 1.60988,5.1599 4.09049,8.59294 8.00092,11.07286 5.13774,3.25826 6.66506,2.97596 14.32642,-2.648 z M 306.7202,534.51043 c 28.42808,-4.0414 50.1722,-12.48316 60.96878,-23.67002 12.16594,-12.60572 17.12044,-31.33074 12.80108,-48.38031 -6.3812,-25.18818 -27.7823,-45.18779 -56.49006,-52.79072 -19.4949,-5.16302 -35.64533,-5.78504 -56.3469,-2.17017 -27.10495,4.73301 -49.61854,18.73165 -62.28975,38.73092 -1.29984,2.05157 -2.36335,3.90111 -2.36335,4.1101 0,0.20898 2.49622,0.6376 5.54716,0.95248 17.15783,1.77085 30.5181,22.19315 27.35755,41.81836 -1.75481,10.89639 -7.50025,19.18739 -15.93933,23.00137 -6.06931,2.74299 -5.61937,3.54127 4.97885,8.83361 9.83265,4.91005 16.23856,6.95931 28.51317,9.12139 12.75067,2.24593 39.04236,2.4646 53.2628,0.44299 z m -27.35939,-18.51246 c -10.3006,-1.5083 -20.50457,-9.46457 -25.99072,-20.26556 -3.40153,-6.69683 -5.74101,-18.8574 -5.05047,-26.25221 1.69069,-18.10522 14.06153,-27.36219 45.68038,-34.18215 11.15612,-2.40629 14.65021,-2.70151 32.5,-2.74596 18.41523,-0.0459 20.35657,0.11953 24.5,2.08708 14.65066,6.95701 22.28847,18.70085 23.67387,36.40079 1.07936,13.78981 -3.78544,23.91262 -14.67387,30.53377 -9.09208,5.52882 -30.96809,11.00033 -55.5,13.88139 -13.96637,1.64022 -17.17214,1.70945 -25.13919,0.54285 z m 20.18464,-31.45252 C 301.36183,482.72908 302,481.0134 302,477.94658 c 0,-11.08873 -9.16989,-17.8676 -15.54545,-11.49203 -1.89385,1.89384 -2.45455,3.50423 -2.45455,7.04966 0,10.91501 9.16336,17.42334 15.54545,11.04124 z m 51.41183,-7.99998 c 1.97799,-2.10547 2.23437,-3.19915 1.8028,-7.69061 -0.41024,-4.2694 -1.08361,-5.75475 -3.64738,-8.04547 -3.86618,-3.45443 -7.04852,-3.57106 -10.05709,-0.36859 -3.97052,4.22643 -2.49169,13.1313 2.86925,17.2774 2.5752,1.99163 6.54371,1.47638 9.03242,-1.17273 z m -134.39804,32.98688 c 8.46474,-4.21816 13.1926,-13.92472 12.06798,-24.77625 -2.33143,-22.49618 -23.16571,-34.20224 -37.62429,-21.13978 -11.17987,10.10034 -9.33022,33.47239 3.44422,43.52077 6.63668,5.22041 14.69175,6.09297 22.11209,2.39526 z m -21.34979,-13.94658 c -8.21233,-9.35333 -6.02745,-24.52568 3.5711,-24.79859 6.87979,-0.19561 12.15682,7.17634 12.19749,17.03974 0.0188,4.56977 -0.39352,5.7424 -2.90112,8.25 -4.22018,4.22019 -8.88727,4.04205 -12.86747,-0.49115 z M 389.70723,499.25 c 3.69916,-4.10707 9.13898,-17.37572 10.36611,-25.28471 1.43925,-9.27621 0.004,-18.16494 -4.44742,-27.53772 -4.12495,-8.68598 -7.83306,-11.41284 -12.75007,-9.37615 -1.60532,0.66495 -3.1361,1.56065 -3.40173,1.99045 -0.26563,0.4298 1.0772,3.85871 2.98406,7.61979 4.84837,9.56291 6.81904,18.06178 6.80282,29.33834 -0.0125,8.70396 -1.30257,15.12688 -4.94445,24.61748 -0.94354,2.45882 2.79964,1.50926 5.39068,-1.36748 z m 53.96389,-1.19107 c 3.66485,-2.23464 7.66381,-8.58925 9.84441,-15.6434 2.29351,-7.41939 2.0325,-20.87577 -0.5382,-27.74658 -2.52222,-6.74123 -5.35795,-9.19877 -11.71561,-10.15316 -12.93615,-1.94194 -39.8076,-5.24269 -40.14718,-4.93147 -0.212,0.19429 0.33327,1.45018 1.21172,2.79086 0.87844,1.34067 2.5144,5.93947 3.63545,10.21954 3.43983,13.13288 2.4528,25.64843 -2.92988,37.15095 -1.60971,3.43988 -2.58459,6.25433 -2.16638,6.25433 0.4182,0 2.08206,-1.39017 3.69746,-3.08928 1.6154,-1.6991 4.15224,-3.7241 5.63743,-4.5 3.23608,-1.6906 11.0745,-1.85083 14.1154,-0.28853 3.83232,1.96889 7.56737,6.06913 8.21513,9.01835 0.55205,2.51349 1.07214,2.85901 4.29859,2.85572 2.01879,-0.002 5.09754,-0.87385 6.84166,-1.93733 z M 1197,642.39219 c -16.2404,-0.68546 -45.0101,-2.52641 -54.5,-3.48741 -14.6252,-1.48104 -20.0241,-3.22677 -16.5739,-5.35912 2.2924,-1.41678 21.5945,-3.48429 43.271,-4.63489 l 23.6422,-1.25494 -2.6697,-3.50395 c -2.5545,-3.35281 -2.6653,-4.00312 -2.5691,-15.07791 0.095,-10.90518 1.9749,-20.34893 5.8135,-29.20088 0.6046,-1.39422 -0.4115,-1.72718 -7.1042,-2.32794 -11.0363,-0.99064 -23.5559,-3.8439 -33.2211,-7.57117 -21.3438,-8.23107 -44.1523,-29.25475 -51.5656,-47.53062 l -2.4109,-5.94336 -6.3061,-0.57542 c -11.8851,-1.08449 -17.3586,-5.93568 -21.5066,-19.06163 -1.9051,-6.0284 -3.2852,-8.85931 -4.3196,-8.86078 -4.0394,-0.006 -17.5093,4.64861 -26.4799,9.1498 -11.5231,5.78198 -21.6464,12.38011 -36.5,23.78994 -43.16485,33.15717 -54.71199,40.9227 -77.5,52.11924 -38.66709,18.99849 -77.82693,25.76704 -111.7958,19.32325 -10.21736,-1.9382 -26.6411,-7.31416 -34.56492,-11.31409 C 772.42153,577.1744 763,571.18579 763,570.17607 c 0,-0.41936 1.4625,-1.19304 3.25,-1.71927 2.75317,-0.81053 3.86148,-0.5661 7.25,1.59897 11.42902,7.30248 30.44881,13.87915 48,16.59746 23.83564,3.69163 56.2951,-0.8524 83.72638,-11.72093 25.83063,-10.23434 47.21596,-23.0904 77.17648,-46.39563 20.46384,-15.91811 21.90624,-17.00777 30.21984,-22.82933 17.3908,-12.17792 32.1545,-19.49047 46.8773,-23.21858 l 9,-2.27897 0.6141,-7.4034 c 0.6445,-7.77048 3.5197,-15.72326 7.0388,-19.46916 2.716,-2.89103 8.1313,-4.04976 27.3471,-5.85151 41.3516,-3.8773 38.6437,-3.42288 42.2551,-7.09087 3.6679,-3.72547 8.4198,-5.03925 12.5487,-3.46943 3.5436,1.34725 9.0672,7.35327 11.2841,12.2696 0.9437,2.09274 1.985,3.80418 2.314,3.80319 0.3289,-9.8e-4 1.9202,-2.09444 3.5362,-4.65212 7.3062,-11.5643 25.2712,-25.77477 39.5421,-31.27819 14.9501,-5.76537 19.6244,-6.496 41.5198,-6.48984 16.9105,0.005 21.5776,0.34848 30.2123,2.22504 10.5974,2.30311 22.1961,6.21834 30.9919,10.46156 l 5.1051,2.46277 9.0032,-10.33436 9.0032,-10.33436 -0.5142,-5.77935 c -0.4345,-4.88354 -0.1807,-6.20028 1.6376,-8.49492 2.4662,-3.11226 7.9532,-4.95599 12.2134,-4.10394 3.705,0.741 8.5304,5.20791 9.4095,8.71041 1.7554,6.99419 -5.5384,15.09278 -12.964,14.39429 -3.82,-0.35933 -4.077,-0.16673 -12.2391,9.17388 -4.5855,5.24751 -8.3421,9.84009 -8.348,10.20575 -0.01,0.36566 2.2183,2.30124 4.943,4.3013 12.7483,9.35815 24.0492,25.4008 28.201,40.03387 1.5376,5.41933 3.3121,9.19047 5.501,11.69041 10.2722,11.73199 7.4049,33.75492 -6.1663,47.36199 -4.7898,4.8024 -11.9676,8.49846 -17.2726,8.89412 -2.0995,0.15659 -6.2697,1.69098 -9.2671,3.40976 -11.075,6.35057 -29.6254,10.69151 -49.0135,11.46955 -6.5229,0.26177 -10.3382,0.89055 -12,1.97764 -7.4956,4.90347 -18.105,7.67116 -29.4364,7.67908 -10.1464,0.007 -15.727,-1.20957 -18.5649,-4.04748 -2.6394,-2.63935 -2.4286,-5.53247 0.6255,-8.58659 1.4083,-1.40833 2.4208,-2.67619 2.25,-2.81747 -0.1708,-0.14128 -4.5856,-1.46424 -9.8106,-2.93991 -5.225,-1.47567 -14.503,-5.08215 -20.6178,-8.0144 -8.9821,-4.30718 -12.5729,-6.71349 -18.692,-12.52602 -4.1658,-3.95706 -9.0226,-9.45197 -10.793,-12.2109 -2.8285,-4.40787 -3.3373,-4.79331 -4.1946,-3.17802 -2.0793,3.91731 -5.2418,6.40082 -8.8947,6.98494 -2.0943,0.33491 -3.8079,0.82415 -3.8079,1.0872 0,0.92591 6.3945,8.82615 11.4187,14.10757 9.8905,10.39688 25.3351,18.86063 38.8113,21.26898 8.9701,1.60304 9.6201,2.84667 5.1734,9.89907 -7.2711,11.532 -13.3844,32.10626 -13.3964,45.08549 -0.01,8.48212 0.6672,9.61745 7.3881,12.42562 10.5306,4.39994 18.642,5.62841 40.6049,6.14954 31.7816,0.75412 54.4528,-2.39567 60.4565,-8.39942 3.1092,-3.10915 2.3038,-6.49599 -4.9756,-20.92421 -6.8286,-13.53455 -8.5988,-21.48279 -6.3163,-28.35918 1.0045,-3.02603 2.6043,-5.24909 4.9125,-6.82643 8.1821,-5.59131 20.2298,-0.0581 35.8859,16.4814 15.382,16.25006 21.9688,32.40509 17.537,43.01191 -0.825,1.97451 -1.5,3.98505 -1.5,4.46788 0,0.48284 2.4106,0.87788 5.3568,0.87788 8.3261,0 30.9597,2.06332 36.758,3.3509 2.8721,0.63781 5.3946,1.67719 5.6054,2.30973 0.8389,2.5168 -8.1957,3.85985 -43.2202,6.42493 -13.7073,1.00387 -138.907,2.04918 -156.5,1.30663 z m 139.5102,-13.83201 c 1.8953,-0.79191 4.3843,-2.92941 5.5311,-4.75 5.37,-8.52521 -2.1644,-26.92631 -16.851,-41.15476 -3.5937,-3.48167 -4.1912,-3.72878 -6.3293,-2.61781 -5.5675,2.89287 -10.8357,8.14603 -11.9716,11.93732 -1.1004,3.67271 -0.8739,4.55684 4.1509,16.20486 2.9231,6.77612 6.418,13.82886 7.7664,15.67278 4.1732,5.70699 10.9798,7.51695 17.7035,4.70761 z M 1312,626.55902 c 0,-2.38687 -1.6225,-2.63358 -3.5213,-0.53544 -1.7389,1.92141 -1.7148,1.97642 0.8663,1.97642 1.645,0 2.655,-0.54817 2.655,-1.44098 z m -156.0795,-68.00035 c 3.8368,-2.8307 5.5858,-5.13294 7.6466,-10.06494 l 1.4818,-3.54645 -6.7745,-7.24643 c -3.7259,-3.98554 -8.9228,-10.06327 -11.5486,-13.50608 -7.6047,-9.97104 -10.0519,-10.26661 -21.4199,-2.58713 -7.5349,5.09004 -9.3059,6.91032 -9.3059,9.56475 0,2.18179 11.1061,14.12436 18.2735,19.64988 4.4377,3.42103 15.9937,10.00925 17.7822,10.13779 0.3057,0.022 2.0448,-1.05866 3.8648,-2.40139 z m 154.8957,-12.48688 c 8.6624,-2.15946 18.1838,-5.82415 18.1838,-6.99877 0,-0.37438 -1.5602,-2.19288 -3.4671,-4.04112 -14.8822,-14.42438 -8.5712,-44.486 11.6635,-55.55765 4.3374,-2.37325 6.5323,-2.90848 12.0484,-2.93807 8.0001,-0.0429 8.0769,-0.23904 3.7078,-9.47447 -6.6896,-14.1407 -17.4382,-25.62497 -31.7184,-33.88912 -18.9136,-10.94564 -46.6148,-17.11454 -71.2045,-15.85687 -25.9595,1.32774 -45.8129,10.02655 -61.6933,27.03112 -18.5762,19.89125 -23.581,46.49958 -12.4165,66.01308 3.9318,6.87213 13.1207,15.44643 21.6883,20.2377 13.7416,7.68474 40.3573,15.02232 62.8918,17.3384 14.7612,1.51714 40.5912,0.56013 50.3162,-1.86423 z M 1257,528.52702 c -0.825,-0.19074 -4.875,-0.88089 -9,-1.53367 -19.1974,-3.03797 -39.7727,-8.91404 -51.202,-14.62266 -8.6095,-4.30024 -12.6994,-7.94639 -16.3229,-14.55184 -2.5489,-4.64663 -2.9002,-6.26673 -2.7791,-12.81885 0.2353,-12.73979 5.5271,-24.25807 15.3779,-33.47234 8.5385,-7.9868 11.979,-9.0362 29.4261,-8.97531 17.2192,0.0601 27.4341,1.64531 45.1145,7.00115 23.4201,7.09455 36.4637,15.71309 39.4735,26.08214 4.1568,14.32048 -2.867,35.68511 -14.8525,45.17788 -7.3485,5.82011 -12.6222,7.55815 -23.7355,7.82247 -5.5,0.13081 -10.675,0.0818 -11.5,-0.10897 z m 9.9472,-28.99974 c 3.4592,-1.78878 7.0528,-8.81388 7.0528,-13.78724 0,-5.12859 -3.5704,-9.08492 -8.0834,-8.95713 -6.921,0.19597 -13.3651,11.29793 -10.8977,18.77446 1.7861,5.41196 6.2602,6.901 11.9283,3.96991 z m -50,-11 c 4.0303,-2.08413 7.4523,-9.51211 6.76,-14.67358 -1.1117,-8.28858 -7.3337,-10.42725 -13.2176,-4.5433 -3.5812,3.58117 -5.9993,10.44741 -4.9264,13.98877 0.9585,3.16403 4.4741,6.70083 6.6608,6.70083 1.0314,0 3.1569,-0.66272 4.7232,-1.47272 z M 1349.5,532.64715 c 9.8126,-4.57918 16.4248,-14.86351 17.2849,-26.88433 0.7924,-11.07519 -2.7206,-17.74888 -11.2102,-21.29606 -14.2149,-5.93935 -32.383,13.49011 -30.1757,32.27069 1.7856,15.19315 11.6635,21.7138 24.101,15.9097 z m -8.9111,-10.72388 c -2.5716,-3.05615 -2.9755,-4.6688 -2.6106,-10.42327 0.5379,-8.48283 8.1814,-17.5 14.834,-17.5 4.9394,0 7.8676,2.19952 9.302,6.98731 1.5777,5.26569 -0.2285,11.61781 -4.8329,16.99705 -6.5,7.59382 -12.4381,8.99501 -16.6925,3.93891 z M 1117.6767,515.75 c 3.0159,-3.35053 3.457,-5.49433 1.898,-9.22541 -2.3209,-5.55467 -7.8584,-7.24089 -11.5747,-3.52459 -2.4649,2.46487 -2.7104,9.54081 -0.4433,12.77749 2.1182,3.02419 7.3859,3.00988 10.12,-0.0275 z m 40.2825,-6.36912 c 5.1428,-4.32738 6.1771,-7.27799 4.9236,-14.04593 -1.2777,-6.89891 -0.5614,-14.91406 2.2915,-25.64319 l 2.0762,-7.80824 -2.7345,-6.43411 c -1.5774,-3.71142 -4.1723,-7.69644 -6.1321,-9.4172 -2.9714,-2.60892 -3.7085,-2.84142 -5.8767,-1.85353 -1.3635,0.62126 -3.1519,2.15636 -3.9742,3.41133 -1.0426,1.59118 -2.7871,2.43727 -5.764,2.79557 -11.1273,1.3393 -23.6329,2.68813 -38.269,4.12764 -20.7002,2.03593 -22.8642,2.62716 -24.8376,6.78583 -5.1274,10.80525 -4.5499,28.16046 1.3199,39.66635 2.8221,5.5317 5.4371,7.0346 12.2402,7.0346 5.1484,0 5.7775,-0.2221 5.7775,-2.03984 0,-5.97563 6.9176,-12.96016 12.836,-12.96016 5.5274,0 11.9056,4.69724 15.2759,11.25 1.5979,3.10682 2.4582,3.75 5.0154,3.75 2.5434,0 2.9618,-0.30802 2.377,-1.75 -5.4229,-13.3724 -6.5353,-23.05589 -4.0547,-35.29812 C 1132.2838,461.89972 1133.2466,460 1136,460 c 3.5484,0 4.228,2.40781 2.4277,8.60081 -2.2897,7.87623 -1.5457,22.62384 1.5502,30.73115 4.594,12.03003 11.2237,15.73506 17.9813,10.04892 z M 607,623.72135 c -5.43288,-2.71464 -5.99675,-5.86246 -5.99845,-33.48683 L 601,564.96904 l 6.36983,4.02291 c 9.12839,5.7651 24.1907,12.59549 37.83638,17.15786 37.57999,12.56472 75.91624,11.59933 109.44827,-2.75614 l 8.15449,-3.49103 5.54835,3.54924 c 11.12446,7.11623 29.37184,13.86325 46.14268,17.06137 10.7731,2.05439 37.61575,2.35385 50.5,0.56338 19.67112,-2.7336 47.60193,-11.70237 66.06762,-21.21476 4.63781,-2.38911 8.76988,-4.4979 9.18238,-4.68619 0.4125,-0.18829 0.75,8.9425 0.75,20.29065 0,16.4869 -0.30482,21.22244 -1.51693,23.5664 -3.30296,6.38723 8.55674,5.96873 -168.68341,5.95253 C 643.84198,624.97366 608.96773,624.70456 607,623.72135 Z m 216,-44.31643 c -10.37867,-1.77778 -14.73916,-2.75007 -20.22039,-4.50871 -7.77007,-2.493 -23.926,-10.00206 -23.55383,-10.94751 0.15082,-0.38314 3.74596,-3.44623 7.9892,-6.80686 8.30002,-6.57361 17.19718,-16.60086 21.86464,-24.64184 8.03762,-13.84701 9.13945,-28.51884 3.06791,-40.85189 -5.76306,-11.70643 -16.12562,-18.69985 -30.89929,-20.85314 -15.34411,-2.23643 -30.87599,2.84874 -41.81709,13.691 -12.838,12.72203 -16.13544,29.04747 -9.61457,47.6012 2.97272,8.45824 7.27502,15.7882 16.98846,28.94373 1.1939,1.61697 0.51259,2.02983 -8,4.84788 -25.30678,8.37767 -48.07855,9.03913 -75.21814,2.1849 -18.89217,-4.7713 -35.9805,-12.45251 -52.8369,-23.75019 l -9.75,-6.53475 0.004,-74.63937 c 0.004,-72.21742 0.067,-74.74306 1.95217,-77.8349 1.29234,-2.11949 3.22729,-3.56616 5.74627,-4.29618 2.7125,-0.78612 49.7305,-1.01602 164.52869,-0.80447 L 933.962,380.5 l 3.26913,3.26904 3.26913,3.26905 V 468.26904 549.5 l -18,9.02926 c -30.61853,15.35903 -50.26255,20.58785 -79,21.02812 -9.9,0.15167 -19.125,0.0831 -20.5,-0.15246 z M 756.5,447.24818 c 0,-6.49792 0.40673,-7.27042 2.5,-4.74818 1.62266,1.95518 7.42606,1.92217 10.45039,-0.0595 2.74589,-1.79918 5.54961,-8.11072 5.54961,-12.49291 0,-3.77356 -2.13819,-8.92886 -4.61198,-11.11973 -3.11697,-2.76049 -6.54287,-3.0727 -10.63802,-0.96947 -2.94869,1.51441 -3.75,1.62847 -3.75,0.53376 C 756,417.51198 754.89676,417 753,417 h -3 v 18.56336 18.56336 l 3.25,-0.31336 3.25,-0.31336 z m 2.02291,-10.40882 c -2.42643,-1.90863 -2.68976,-2.6667 -2.25776,-6.49945 0.59973,-5.32071 2.15604,-7.33991 5.65729,-7.33991 3.90941,0 5.07756,1.75843 5.07756,7.6433 0,4.28465 -0.40634,5.52791 -2.22251,6.8 -2.83813,1.9879 -2.97658,1.97453 -6.25458,-0.60394 z M 654,446.60841 c 0,-1.73828 0.70645,-2.5689 2.58612,-3.04067 4.12611,-1.03559 7.41388,-4.9875 7.41388,-8.9115 0,-4.84331 -2.51587,-7.38062 -10,-10.08521 -5.93806,-2.14588 -6.5,-2.5963 -6.5,-5.20999 0,-2.55735 0.37861,-2.89283 3.56695,-3.16049 2.94344,-0.24711 3.75731,0.11834 4.65594,2.09061 0.88892,1.95095 1.65744,2.30663 4.18305,1.93595 2.06682,-0.30334 3.09406,-1.01832 3.09406,-2.15352 0,-1.85999 -4.46782,-6.41755 -7.25,-7.39561 -0.9625,-0.33837 -1.75,-1.52933 -1.75,-2.6466 C 654,406.53124 653.34621,406 651.5,406 c -1.84352,0 -2.5,0.53168 -2.5,2.02475 0,1.20967 -0.95354,2.38729 -2.36868,2.92532 -5.27027,2.00376 -8.20066,9.24907 -5.66049,13.99542 1.03567,1.93518 7.81061,5.05451 10.97798,5.05451 2.21326,0 5.05119,2.52825 5.05119,4.5 0,2.1357 -2.9115,4.5 -5.54149,4.5 -1.47134,0 -3.20432,-1.08975 -4.48271,-2.81886 -1.65935,-2.24439 -2.68443,-2.73075 -5.02994,-2.3865 -1.62022,0.2378 -2.94418,0.71878 -2.94212,1.06886 0.0122,2.07393 4.54491,7.51732 7.04575,8.46128 2.07938,0.78488 2.95051,1.78708 2.95051,3.39446 0,1.76614 0.56408,2.28076 2.5,2.28076 1.96978,0 2.5,-0.50723 2.5,-2.39159 z m 50.05244,-4.1716 c 1.17649,-1.41758 1.37882,-1.41758 2.17214,0 C 706.7096,443.3035 708.41394,444 710.04969,444 H 713 v -10.77749 c 0,-12.41316 -0.89174,-14.51058 -6.93972,-16.3226 -5.44359,-1.63094 -10.42478,-0.44388 -13.50669,3.21877 -2.90763,3.45552 -2.70973,4.42716 1.04805,5.1455 1.75654,0.33578 3.25733,-0.12315 4.51478,-1.3806 2.15185,-2.15185 4.93106,-2.4361 6.68358,-0.68358 2.32922,2.32922 1.22135,3.67461 -3.55,4.3111 -6.89012,0.91912 -9.83759,2.28833 -11.15625,5.18249 -1.39966,3.07192 0.10726,8.73727 2.73126,10.26829 2.68629,1.56736 9.76564,1.23629 11.22743,-0.52507 z m -6.6684,-4.8784 c -1.27008,-3.30979 0.0851,-5.05077 4.37907,-5.62564 3.85108,-0.51558 4.23689,-0.37033 4.23689,1.59501 0,4.23378 -7.23857,7.62005 -8.61596,4.03063 z m 39.9317,5.32455 c 2.52491,-1.29125 5.62962,-4.86443 5.66202,-6.51638 0.0122,-0.62339 -1.20316,-1.36768 -2.70087,-1.65398 -1.95091,-0.37294 -3.10127,0.0194 -4.0567,1.38342 -1.50122,2.1433 -6.17098,2.55319 -8.02019,0.70398 -0.66,-0.66 -1.2,-3.57463 -1.2,-6.47695 0,-4.55414 0.34961,-5.50602 2.55238,-6.94933 2.42698,-1.59022 2.69521,-1.56679 5.45951,0.47695 3.27739,2.42308 7.98811,2.88553 7.98811,0.78419 0,-4.298 -8.43616,-9.48961 -13.2343,-8.14438 -7.46491,2.09289 -9.7657,5.52319 -9.7657,14.55986 0,5.6604 0.2705,6.42016 3.4,9.54966 2.77843,2.77843 4.16156,3.4 7.56574,3.4 2.29116,0 5.14866,-0.50267 6.35,-1.11704 z m 48.68938,0.36704 c 0.003,-0.4125 1.05632,-2.48654 2.34111,-4.60899 l 2.33599,-3.85898 2.70104,4.60898 C 795.76802,443.4603 796.48921,444 799.54215,444 801.44397,444 803,443.71113 803,443.35806 c 0,-0.35306 -1.78124,-3.46233 -3.95831,-6.90947 l -3.9583,-6.26753 3.9583,-6.12427 C 801.21876,420.68844 803,417.7227 803,417.46626 803,417.20982 801.4848,417 799.63289,417 c -2.85184,0 -3.7962,0.64839 -6.17101,4.23697 -1.91227,2.88964 -2.95386,3.76412 -3.27547,2.75 C 788.83696,419.73188 785.80497,417 782.43191,417 780.54436,417 779,417.28076 779,417.62391 c 0,0.34314 1.74372,3.23514 3.87492,6.42664 l 3.87493,5.80275 -3.87174,5.82335 C 778.06758,442.912 778.01815,444 782.5,444 c 1.925,0 3.50231,-0.3375 3.50512,-0.75 z m -30.57913,107.44627 c -17.4065,-17.64102 -22.27098,-34.99068 -14.38064,-51.28994 2.88349,-5.95651 11.72043,-13.77249 18.70799,-16.54659 4.5287,-1.79792 7.76011,-2.28887 15.24666,-2.31641 8.45256,-0.0311 10.13999,0.27865 15.30455,2.80929 15.35064,7.52183 19.63833,24.61348 10.49687,41.84275 -5.58795,10.53183 -17.60805,22.98396 -29.05142,30.0956 -1.5125,0.93997 -3.7625,2.35985 -5,3.1553 -2.1539,1.3845 -2.63757,1.05348 -11.32401,-7.75 z M 479.71212,454.37879 C 479.32045,453.98712 479,452.85024 479,451.85239 c 0,-2.15688 2.33009,-2.85662 10.46489,-3.14265 4.9753,-0.17494 6.02425,0.0801 6.32276,1.53735 0.22701,1.10823 -0.49148,2.06484 -1.96489,2.61607 -3.4232,1.28068 -13.2862,2.34007 -14.11064,1.51563 z M 468.70216,433.8532 c -2.88445,-1.61422 -1.94203,-3.42664 4.54362,-8.73815 6.51722,-5.33734 9.11308,-6.22821 10.16448,-3.4883 0.78536,2.04661 -0.43075,3.50264 -7.41269,8.87512 -4.32031,3.3244 -5.98063,4.08711 -7.29541,3.35133 z m -25.06469,-10.5449 c -0.29387,-0.99457 0.0216,-4.5083 0.7011,-7.8083 1.0237,-4.97181 1.6154,-6.05486 3.45289,-6.32014 3.0664,-0.44269 3.45183,1.31764 1.93476,8.83628 -1.07707,5.33796 -1.6835,6.53835 -3.43136,6.79216 -1.36112,0.19765 -2.31484,-0.34069 -2.65739,-1.5 z M 1238.627,393.46347 c -8.1801,-4.63247 -15.4142,-8.87188 -16.0757,-9.42093 -0.81,-0.67224 -3.9541,-0.47709 -9.6271,0.59755 -6.4072,1.21374 -12.1353,1.47173 -23.9242,1.07756 -17.8673,-0.59741 -27.2751,-2.67763 -38.5,-8.51293 -8.7564,-4.55208 -19.7975,-15.08576 -19.3222,-18.43435 0.5541,-3.90444 4.8657,-3.49689 7.7182,0.72955 5.3085,7.86539 16.9764,14.50703 32.0539,18.24582 8.8736,2.20042 35.9314,2.21922 44.8842,0.0312 l 6.3341,-1.54803 13.2805,7.88556 c 7.3043,4.33705 13.8218,7.88555 14.4833,7.88555 0.6717,0 0.9793,-0.77277 0.6966,-1.75 -0.2784,-0.9625 -1.0796,-5.28592 -1.7805,-9.60761 -1.1975,-7.38453 -1.1596,-7.94143 0.6299,-9.25 1.0474,-0.76581 3.2144,-1.39239 4.8156,-1.39239 5.1915,0 20.8505,-5.9422 27.7551,-10.53237 20.7789,-13.81376 25.4918,-36.47074 11.4231,-54.91571 C 1288.7266,298.33063 1273.3531,290 1266.6175,290 c -1.2691,0 -3.1347,-0.91401 -4.1457,-2.03113 -1.7176,-1.89801 -1.7286,-2.14067 -0.1667,-3.70251 1.4862,-1.48618 2.3652,-1.53338 7.9331,-0.42596 9.8254,1.95419 18.3821,6.61933 25.8259,14.08032 7.381,7.39812 10.4914,13.03624 12.1694,22.05928 1.5197,8.17194 -0.1773,18.25832 -4.407,26.19413 -6.5069,12.20823 -22.0776,23.50291 -38.3716,27.83407 -4.3752,1.16299 -8.4657,2.27794 -9.0899,2.47765 -0.8085,0.25867 -0.8724,1.75122 -0.2219,5.18864 3.1454,16.62311 2.9557,20.40749 -1.0155,20.26858 -0.8952,-0.0313 -8.3204,-3.84713 -16.5006,-8.4796 z m -904.91595,-7.6053 c -2.39993,-1.34307 -2.22134,-2.33674 2.28895,-12.73574 2.2,-5.07235 4,-9.607 4,-10.07699 0,-0.46999 -2.3625,-2.19305 -5.25,-3.82903 -2.8875,-1.63597 -7.86242,-5.72165 -11.05538,-9.07928 -16.81589,-17.68313 -16.50025,-40.76194 0.78829,-57.63713 5.89961,-5.75855 12.4522,-9.54638 22.75318,-13.15283 5.68779,-1.99134 9.86767,-2.64812 19.26391,-3.02692 6.6,-0.26607 13.8,-0.0893 16,0.39276 3.34255,0.73245 4,1.28006 4,3.33175 V 282.5 l -13.04345,0.13926 c -14.89911,0.15908 -22.70296,1.75348 -32.39348,6.61828 -14.51417,7.28636 -22.49884,18.72588 -22.5411,32.29432 -0.0192,6.16496 0.45247,8.01184 3.75037,14.68468 4.30442,8.7094 9.32195,13.68289 18.93332,18.76714 3.46189,1.83128 6.58805,3.77281 6.94703,4.31452 0.35897,0.54171 -0.83684,4.51672 -2.65737,8.83336 C 343.67479,372.4682 342.37523,376 342.6074,376 c 0.23217,0 6.49608,-2.72177 13.91979,-6.04839 l 13.49765,-6.04838 5.67124,1.04838 c 8.08792,1.49514 22.82167,1.29536 31.96595,-0.43343 15.55523,-2.94083 30.50534,-12.92174 35.67581,-23.8177 1.88047,-3.9628 4.2526,-5.28527 6.35319,-3.54194 1.96019,1.62681 0.97033,5.16112 -3.23747,11.55951 -11.30783,17.19473 -39.41165,26.90492 -67.95356,23.47873 l -8,-0.96032 -12,5.01146 c -6.6,2.7563 -14.49253,6.26164 -17.53895,7.78963 -4.05494,2.03383 -5.99739,2.52162 -7.25,1.82062 z M 1179.5,360.26175 c -1.1,-0.25073 -2.4275,-0.8622 -2.95,-1.35881 -0.5225,-0.49662 -2.1549,-0.90294 -3.6276,-0.90294 -2.9241,0 -5.4811,-2.287 -4.4401,-3.97135 0.9154,-1.4812 5.9921,-3.48432 17.732,-6.99652 7.6034,-2.27471 10.4272,-2.7446 11.4404,-1.90371 2.0687,1.71686 1.6065,3.67085 -1.2184,5.15098 -1.4101,0.7388 -3.0976,2.39729 -3.75,3.68554 -2.2273,4.39773 -8.4602,7.37408 -13.1863,6.29681 z m -16.0318,-17.04954 c -1.3018,-3.25369 -2.4626,-4.20036 -8.232,-6.71378 -9.0534,-3.94409 -14.6339,-9.6187 -16.8055,-17.08896 -3.1312,-10.77094 -0.3635,-19.68817 8.6167,-27.76215 11.6285,-10.45507 30.3218,-10.41447 42.0067,0.0913 2.8867,2.59533 6.0705,6.52838 7.0752,8.74011 2.4826,5.4651 2.367,13.58541 -0.3105,21.81203 -1.8568,5.70485 -2.039,7.43235 -1.1392,10.80328 1.1336,4.24725 -0.1122,6.90601 -3.2361,6.90601 -0.7775,0 -6.1211,1.575 -11.8747,3.5 -13.3831,4.47762 -14.1997,4.46302 -16.1006,-0.28779 z m 9.8475,-4.34766 c 1.2014,-0.6245 2.3263,-1.25397 2.4998,-1.39881 0.8366,-0.69842 -6.029,-12.46574 -7.2732,-12.46574 -1.8263,0 -4.5439,-3.83235 -3.9026,-5.50349 0.5215,-1.35894 7.863,-4.49651 10.5213,-4.49651 2.7922,0 4.2837,2.72862 3.0143,5.51457 -0.9034,1.98272 -0.7047,3.56504 1.0324,8.22038 1.1831,3.17078 2.2632,5.92037 2.4002,6.11021 0.137,0.18984 1.6783,0.0312 3.4251,-0.35241 2.8504,-0.62605 3.118,-0.98796 2.6096,-3.5298 -0.3497,-1.74866 0.3754,-5.52816 1.8955,-9.87881 1.354,-3.87562 2.4594,-8.06753 2.4563,-9.31536 -0.018,-7.33378 -5.0716,-15.23702 -12.0046,-18.77401 -15.7079,-8.01353 -35.9461,2.61017 -35.9842,18.88921 -0.02,8.3622 6.464,16.80563 15.257,19.86871 3.092,1.07712 6.0172,2.99386 7.6266,4.99728 2.8998,3.60974 3.2982,3.74081 6.4265,2.11458 z m -778.66071,5.30671 c -2.28522,-2.52513 -2.07405,-4.42894 0.78965,-7.11925 2.9636,-2.78416 7.19659,-2.17126 8.48049,1.22791 2.13927,5.66384 -5.23488,10.35025 -9.27014,5.89134 z m -28.08506,-1.37488 c -1.28678,-1.83715 -1.32767,-2.52864 -0.24584,-4.15796 2.84917,-4.29108 9.67591,-3.34082 9.67591,1.34686 0,4.73452 -6.68669,6.72783 -9.43007,2.8111 z m 851.98677,-12.01889 c -0.8562,-1.22237 -1.5567,-3.04283 -1.5567,-4.04545 0,-2.66307 4.5057,-6.73204 7.4545,-6.73204 3.1802,0 6.5455,3.25228 6.5455,6.32569 0,5.71047 -9.245,9.01802 -12.4433,4.4518 z M 365.88485,329.3075 c -0.35022,-5.49704 0.0512,-6.0904 8.56013,-12.65407 3.53472,-2.72662 3.61763,-2.92677 1.96763,-4.75 -2.15043,-2.37619 -7.38178,-2.48642 -12.08491,-0.25464 -3.32887,1.57965 -3.56118,1.56217 -5.54008,-0.41672 -2.65798,-2.65799 -1.9022,-4.45482 2.87055,-6.82455 2.7732,-1.37693 5.97514,-1.90752 11.51127,-1.90752 6.74058,0 7.98197,0.29361 10.25,2.42431 1.97792,1.85816 2.58056,3.40301 2.58056,6.61515 0,4.78878 -2.22414,8.19988 -7.45413,11.43219 -2.29309,1.41721 -3.52431,3.00716 -3.7336,4.82143 -0.2781,2.41072 -0.77731,2.74057 -4.56227,3.01442 -3.51332,0.2542 -4.26996,-0.006 -4.36515,-1.5 z m 33.36515,1.03022 c -1.86088,-0.75088 -1.50531,-5.40675 0.68757,-9.00309 1.57663,-2.58567 2.92897,-3.37273 7.38443,-4.29768 13.31845,-2.7649 10.33416,-12.90716 -3.48885,-11.85698 -3.69742,0.2809 -4.4014,-0.0119 -5.75814,-2.39462 -2.12939,-3.73974 -0.56074,-5.05026 6.67109,-5.57337 14.22196,-1.02872 24.40626,7.07622 21.82329,17.36757 -1.03483,4.12307 -4.82794,7.10893 -11.35878,8.94139 -4.9868,1.39923 -6.27147,2.21177 -7.25642,4.58965 -0.97246,2.34772 -1.78337,2.87461 -4.32551,2.81046 -1.72077,-0.0434 -3.69118,-0.30592 -4.37868,-0.58333 z m 826.405,-17.16646 c -0.9103,-1.00581 -1.6451,-2.69331 -1.6331,-3.75 0.047,-4.13342 5.8944,-24.67133 7.5427,-26.49266 3.6776,-4.06373 11.4354,-1.3903 11.4354,3.9408 0,1.21656 -2.0547,7.25613 -4.5659,13.42126 -5.6858,13.95854 -8.8852,17.18336 -12.7791,12.8806 z m -112.4204,-8.2313 c -5.3513,-1.055 -6.2346,-1.60644 -6.2346,-3.89199 0,-2.59229 1.7177,-2.96011 8.5334,-1.82729 7.0223,1.16714 9.4666,2.86949 7.5083,5.22913 -1.3987,1.68528 -3.2705,1.77883 -9.8071,0.49015 z m 15.8382,-26.36582 c -4.5799,-4.66655 -4.96,-7.57414 -0.9901,-7.57414 2.4874,0 9.8143,7.60413 9.8763,10.25 0.077,3.29801 -4.3241,1.97266 -8.8862,-2.67586 z m 35.636,-4.19862 c -1.0836,-1.0837 -0.843,-10.25615 0.3264,-12.44126 0.5693,-1.06384 1.6392,-1.93426 2.3775,-1.93426 2.6176,0 3.3993,2.4258 2.7393,8.5 -0.5454,5.01891 -0.9858,6.04778 -2.6932,6.29218 -1.1226,0.1607 -2.3601,-0.0268 -2.75,-0.41666 z"
         id="path1" />
    </g>
  </g>
</svg>
